<svg width="1037" height="598" viewBox="0 0 1037 598" fill="none" xmlns="http://www.w3.org/2000/svg">
<path d="M19 261V333H163" stroke="#79FF58" stroke-width="6"/>
<path d="M728 367V510H838" stroke="#FFE32A" stroke-width="6"/>
<path d="M740 131V71H910" stroke="#FFA5AF" stroke-width="6"/>
<path d="M541.518 443.928L539.343 442.438L430.454 367.897L426.829 365.416L423.901 368.692L407.756 386.763L406.484 388.186V405.386L362.943 420.834L352.04 415.689L349.608 414.543L347.312 415.938L321.396 431.673L298.565 436.317L290.983 430.541L288.528 428.67L285.757 430.025L226.815 458.844L142.456 428.948L133.312 421.785L134.752 410.229L185.169 291.531L186.07 289.409L185.041 287.345L175.579 268.37L237.383 218.94L238.243 218.252L238.734 217.267L254.903 184.842L291.092 147.859L568.766 256.273L586.385 382.877L586.46 383.418L586.65 383.93L615.964 462.804L615.387 477.563L581.505 489H571.19L541.518 460.616V443.928Z" fill="#CAFFBD" fill-opacity="0.4" stroke="#79FF58" stroke-width="10"/>
<path d="M805.807 176.077L827.082 201.778L827.877 202.737L829.028 203.213L867.344 219.004L868.918 219.652L870.561 219.205L899.612 211.308L928.042 219.776L950.329 253.957L950.978 254.95L952.002 255.547L1007.86 288.067L1012.71 302.326L1005.08 323.903L977.883 347.859L976.188 349.353V363.749L972.504 366.466L906.316 363.585L872.406 344.973L870.901 344.146L869.207 344.419L688.902 373.369L688.325 373.462L687.785 373.686L670.506 380.828L670.022 381.028L669.591 381.324L643.326 399.311L596.596 378.975L579.548 256.33L772.973 200.385L774.541 199.932L775.539 198.64L797.179 170.649L805.807 176.077Z" fill="#FFED7A" fill-opacity="0.4" stroke="#FFE32A" stroke-width="10"/>
<path d="M594.91 41.708L619.005 54.6777L620.017 55.2217L621.163 55.2705L645.864 56.3154L688.367 98.165L688.701 98.4941L689.091 98.7549L787.754 164.885L768.049 190.176L573.614 246.723L299.85 139.284L347.843 90.2119L372.539 85.6182L373.661 85.4092L374.581 84.7354L404.012 63.1631H420.384L450.625 89.3711V123.971L458.69 117.71L528.963 63.1631H546.572L547.919 62.1299L575.372 41.0566L594.91 41.708Z" fill="#FFA6A6" fill-opacity="0.4" stroke="#FFA6A6" stroke-width="10"/>
</svg>
